<svg width="1280" height="720" viewBox="0 0 1280 720" fill="none" xmlns="http://www.w3.org/2000/svg">
  <defs>
    <linearGradient id="bg" x1="70" y1="40" x2="1180" y2="700" gradientUnits="userSpaceOnUse">
      <stop stop-color="#081221"/>
      <stop offset="0.45" stop-color="#10223F"/>
      <stop offset="1" stop-color="#050B16"/>
    </linearGradient>
    <linearGradient id="glow" x1="220" y1="90" x2="1030" y2="590" gradientUnits="userSpaceOnUse">
      <stop stop-color="#6EF3FF"/>
      <stop offset="0.4" stop-color="#7B9CFF"/>
      <stop offset="0.72" stop-color="#FF7AD9"/>
      <stop offset="1" stop-color="#FFB15C"/>
    </linearGradient>
    <radialGradient id="spotA" cx="0" cy="0" r="1" gradientUnits="userSpaceOnUse" gradientTransform="translate(270 180) rotate(42) scale(250 180)">
      <stop stop-color="#1ED6FF" stop-opacity="0.38"/>
      <stop offset="1" stop-color="#1ED6FF" stop-opacity="0"/>
    </radialGradient>
    <radialGradient id="spotB" cx="0" cy="0" r="1" gradientUnits="userSpaceOnUse" gradientTransform="translate(980 540) rotate(42) scale(240 170)">
      <stop stop-color="#FF6AC7" stop-opacity="0.28"/>
      <stop offset="1" stop-color="#FF6AC7" stop-opacity="0"/>
    </radialGradient>
    <filter id="blur" x="-40" y="-40" width="1360" height="800" filterUnits="userSpaceOnUse">
      <feGaussianBlur stdDeviation="18"/>
    </filter>
  </defs>

  <rect width="1280" height="720" rx="28" fill="url(#bg)"/>
  <rect width="1280" height="720" rx="28" fill="url(#spotA)"/>
  <rect width="1280" height="720" rx="28" fill="url(#spotB)"/>

  <g opacity="0.22">
    <circle cx="168" cy="132" r="2.2" fill="#DDF7FF"/>
    <circle cx="219" cy="91" r="1.8" fill="#DDF7FF"/>
    <circle cx="1032" cy="144" r="1.9" fill="#DDF7FF"/>
    <circle cx="1115" cy="250" r="1.7" fill="#DDF7FF"/>
    <circle cx="935" cy="616" r="2.2" fill="#DDF7FF"/>
    <circle cx="1162" cy="544" r="1.6" fill="#DDF7FF"/>
    <circle cx="803" cy="104" r="1.4" fill="#DDF7FF"/>
    <circle cx="141" cy="552" r="1.4" fill="#DDF7FF"/>
    <circle cx="421" cy="624" r="1.8" fill="#DDF7FF"/>
    <circle cx="531" cy="142" r="1.5" fill="#DDF7FF"/>
  </g>

  <g filter="url(#blur)" opacity="0.28">
    <path d="M798 115C697 133 615 204 617 288C620 390 742 432 738 516C735 583 648 623 542 609" stroke="url(#glow)" stroke-width="20" stroke-linecap="round"/>
    <path d="M936 182C825 208 743 287 753 366C762 440 853 487 847 558" stroke="url(#glow)" stroke-width="16" stroke-linecap="round"/>
    <path d="M980 245C900 267 842 326 848 386C854 443 909 484 908 532" stroke="url(#glow)" stroke-width="12" stroke-linecap="round"/>
  </g>

  <g opacity="0.95">
    <path d="M786 121C690 138 611 206 612 290C613 391 735 431 731 517C728 580 646 618 548 606" stroke="url(#glow)" stroke-width="6" stroke-linecap="round"/>
    <path d="M932 184C827 209 751 284 757 361C764 437 852 485 847 554" stroke="url(#glow)" stroke-width="4.5" stroke-linecap="round"/>
    <path d="M977 247C902 267 847 325 851 383C855 437 906 477 907 527" stroke="url(#glow)" stroke-width="3.5" stroke-linecap="round"/>
    <circle cx="788" cy="121" r="10" fill="#081221" stroke="#6EF3FF" stroke-width="3"/>
    <circle cx="730" cy="517" r="10" fill="#081221" stroke="#FF7AD9" stroke-width="3"/>
  </g>

  <rect x="72" y="84" width="520" height="552" rx="28" fill="#07111E" fill-opacity="0.68" stroke="#9CC7FF" stroke-opacity="0.18"/>

  <text x="108" y="166" fill="#EEF7FF" font-family="'Segoe UI', Arial, sans-serif" font-size="64" font-weight="700">Fract'ol</text>
  <text x="110" y="208" fill="#8CC7FF" font-family="'Segoe UI', Arial, sans-serif" font-size="22">Interactive fractal explorer in C</text>

  <text x="110" y="280" fill="#DCEBFF" font-family="'Segoe UI', Arial, sans-serif" font-size="28" font-weight="600">Explore the edge of order and chaos</text>
  <text x="110" y="320" fill="#B5C7E0" font-family="'Segoe UI', Arial, sans-serif" font-size="21">
    <tspan x="110" dy="0">Zoom into Mandelbrot, experiment with Julia constants,</tspan>
    <tspan x="110" dy="30">shift palettes, and move through fractal space in real time.</tspan>
  </text>

  <g font-family="'Segoe UI', Arial, sans-serif" font-size="21" fill="#F2F7FF">
    <rect x="110" y="404" width="168" height="44" rx="22" fill="#10243E" stroke="#6EF3FF" stroke-opacity="0.38"/>
    <text x="144" y="432">Mandelbrot</text>
    <rect x="292" y="404" width="118" height="44" rx="22" fill="#10243E" stroke="#7B9CFF" stroke-opacity="0.38"/>
    <text x="329" y="432">Julia</text>
    <rect x="110" y="464" width="175" height="44" rx="22" fill="#10243E" stroke="#FF7AD9" stroke-opacity="0.38"/>
    <text x="141" y="492">Burning Ship</text>
    <rect x="300" y="464" width="130" height="44" rx="22" fill="#10243E" stroke="#FFB15C" stroke-opacity="0.38"/>
    <text x="336" y="492">Tricorn</text>
  </g>

  <g font-family="'Segoe UI', Arial, sans-serif">
    <text x="111" y="574" fill="#F4F8FF" font-size="18" font-weight="600">Controls</text>
    <text x="111" y="606" fill="#BBCDE4" font-size="17">Mouse wheel for zoom, arrows for movement,</text>
    <text x="111" y="632" fill="#BBCDE4" font-size="17">C for palettes, A for autoplay.</text>
  </g>
</svg>
